<?xml version="1.0" encoding="UTF-8" standalone="no"?>
<!DOCTYPE svg PUBLIC "-//W3C//DTD SVG 1.1//EN" "http://www.w3.org/Graphics/SVG/1.1/DTD/svg11.dtd">
<svg xmlns="http://www.w3.org/2000/svg" version="1.1" viewBox="0.00 0.00 512.00 512.00">
<rect fill="#ffffff" x="288.75" y="19.48" width="16.00" height="473.04" rx="7.95"/>
<rect fill="#ffffff" x="144.30" y="128.54" width="15.92" height="47.32" rx="7.68"/>
<path fill="#ffffff" d="
  M 331.04 374.48
  C 325.64 372.98 323.20 367.20 325.64 363.05
  Q 326.89 360.90 332.24 357.38
  C 402.72 310.95 408.48 210.70 344.07 156.35
  C 342.17 154.75 338.19 151.86 335.39 149.45
  C 331.72 146.28 331.40 140.83 334.98 137.69
  Q 337.09 135.84 342.01 134.99
  Q 384.16 127.73 421.23 146.87
  C 472.05 173.12 497.83 232.00 483.31 287.26
  C 465.93 353.36 397.57 392.94 331.04 374.48
  Z
  M 366.62 155.62
  C 422.91 216.09 416.35 308.85 353.25 361.90
  A 0.37 0.37 0.0 0 0 353.45 362.55
  C 427.62 368.91 486.88 301.98 467.83 229.04
  C 455.09 180.21 411.39 147.97 360.93 148.98
  A 0.41 0.40 65.5 0 0 360.67 149.69
  Q 363.67 152.45 366.62 155.62
  Z"
/>
<rect fill="#ffffff" x="-7.99" y="-23.65" transform="translate(223.88,180.75) rotate(43.5)" width="15.98" height="47.30" rx="7.77"/>
<rect fill="#ffffff" x="-7.99" y="-23.68" transform="translate(80.73,180.76) rotate(-43.6)" width="15.98" height="47.36" rx="7.78"/>
<path fill="#ffffff" d="
  M 230.59 256.00
  A 78.29 78.29 0.0 0 1 152.30 334.29
  A 78.29 78.29 0.0 0 1 74.01 256.00
  A 78.29 78.29 0.0 0 1 152.30 177.71
  A 78.29 78.29 0.0 0 1 230.59 256.00
  Z
  M 214.58 256.00
  A 62.28 62.28 0.0 0 0 152.30 193.72
  A 62.28 62.28 0.0 0 0 90.02 256.00
  A 62.28 62.28 0.0 0 0 152.30 318.28
  A 62.28 62.28 0.0 0 0 214.58 256.00
  Z"
/>
<rect fill="#ffffff" x="24.79" y="248.04" width="47.36" height="15.92" rx="7.68"/>
<rect fill="#ffffff" x="-23.59" y="-7.98" transform="translate(256.13,256.00) rotate(0.1)" width="47.18" height="15.96" rx="7.69"/>
<rect fill="#ffffff" x="-7.99" y="-23.65" transform="translate(223.88,331.25) rotate(-43.5)" width="15.98" height="47.30" rx="7.78"/>
<rect fill="#ffffff" x="-7.98" y="-23.67" transform="translate(80.72,331.25) rotate(43.6)" width="15.96" height="47.34" rx="7.77"/>
<rect fill="#ffffff" x="144.30" y="336.14" width="15.92" height="47.32" rx="7.68"/>
</svg>
