<?xml version="1.0" encoding="UTF-8" standalone="no"?>
<!DOCTYPE svg PUBLIC "-//W3C//DTD SVG 1.1//EN" "http://www.w3.org/Graphics/SVG/1.1/DTD/svg11.dtd">
<svg xmlns="http://www.w3.org/2000/svg" version="1.1" viewBox="0.00 0.00 256.00 256.00">
<path fill="#ffffff" d="
  M 256.00 125.07
  L 256.00 134.55
  C 252.65 192.01 213.94 239.88 158.02 253.85
  C 153.43 255.00 149.22 253.95 149.24 248.49
  Q 149.35 214.79 149.18 203.81
  Q 149.07 196.79 146.20 189.67
  C 144.70 185.94 144.14 181.69 148.74 180.47
  Q 166.69 175.73 179.15 166.64
  C 205.56 147.35 211.23 113.30 187.69 88.79
  Q 185.13 86.13 186.32 83.32
  Q 192.07 69.70 185.49 56.50
  A 1.05 1.04 -24.9 0 0 184.15 56.01
  Q 173.58 60.49 165.58 69.30
  Q 162.97 72.17 160.06 71.19
  Q 127.77 60.36 97.18 70.78
  C 95.30 71.42 92.66 71.51 91.40 70.10
  Q 83.15 60.87 72.03 56.10
  A 1.22 1.22 0.0 0 0 70.45 56.68
  Q 64.10 69.60 69.45 82.86
  C 70.23 84.79 70.06 87.34 68.71 88.70
  C 57.95 99.60 51.97 114.16 53.78 129.49
  C 56.72 154.47 78.71 172.37 101.80 179.00
  C 107.65 180.68 107.07 186.03 106.52 190.51
  C 104.18 209.31 82.83 205.55 72.34 197.68
  Q 65.88 192.83 59.06 188.14
  A 0.37 0.37 0.0 0 0 58.54 188.66
  C 64.85 197.56 76.93 215.32 89.49 214.81
  C 94.04 214.63 106.66 212.86 106.71 220.06
  Q 106.80 233.65 106.72 247.23
  C 106.69 253.07 104.17 255.31 98.22 253.87
  C 42.42 240.45 2.90 191.43 0.00 134.42
  L 0.00 124.66
  Q 3.51 68.38 44.57 32.62
  C 100.52 -16.11 185.10 -5.97 229.80 51.97
  Q 254.06 83.41 256.00 125.07
  Z"
/>
</svg>
