<?xml version="1.0" encoding="UTF-8" standalone="no"?>
<!DOCTYPE svg PUBLIC "-//W3C//DTD SVG 1.1//EN" "http://www.w3.org/Graphics/SVG/1.1/DTD/svg11.dtd">
<svg xmlns="http://www.w3.org/2000/svg" version="1.1" viewBox="0.00 0.00 300.00 112.00">
<path fill="#444444" fill-opacity="0.992" d="
  M 126.93 0.93
  L 138.82 48.89
  A 0.48 0.48 0.0 0 0 139.29 49.25
  L 159.62 49.25
  A 0.48 0.48 0.0 0 0 160.09 48.89
  L 171.99 0.94
  A 0.48 0.48 0.0 0 1 172.80 0.72
  L 199.96 28.16
  A 0.48 0.48 0.0 0 1 200.05 28.72
  L 172.88 81.24
  A 0.48 0.48 0.0 0 1 172.46 81.50
  L 126.46 81.50
  A 0.48 0.48 0.0 0 1 126.04 81.24
  L 98.91 28.76
  A 0.48 0.48 0.0 0 1 98.99 28.20
  L 126.12 0.71
  A 0.48 0.48 0.0 0 1 126.93 0.93
  Z
  M 125.26 3.02
  L 100.48 28.18
  Q 100.05 28.62 100.33 29.17
  L 125.48 77.83
  A 0.31 0.31 0.0 0 0 125.97 77.91
  L 126.17 77.70
  Q 126.49 77.39 126.33 76.97
  Q 125.75 75.42 125.74 73.75
  Q 125.63 38.41 125.90 3.28
  A 0.37 0.37 0.0 0 0 125.26 3.02
  Z
  M 198.79 28.80
  A 0.31 0.31 0.0 0 0 198.73 28.44
  L 173.54 2.94
  A 0.31 0.31 0.0 0 0 173.01 3.15
  L 172.98 77.46
  A 0.31 0.31 0.0 0 0 173.57 77.61
  L 198.79 28.80
  Z
  M 172.00 7.88
  A 0.30 0.30 0.0 0 0 171.41 7.81
  L 161.10 49.57
  A 0.30 0.30 0.0 0 0 161.11 49.75
  L 171.42 76.66
  A 0.30 0.30 0.0 0 0 172.00 76.56
  L 172.00 7.88
  Z
  M 127.02 76.26
  A 0.31 0.31 0.0 0 0 127.62 76.37
  L 137.84 49.75
  A 0.31 0.31 0.0 0 0 137.85 49.57
  L 127.57 7.84
  A 0.31 0.31 0.0 0 0 126.96 7.91
  L 127.02 76.26
  Z
  M 160.19 50.43
  A 0.33 0.33 0.0 0 0 159.88 50.22
  L 139.04 50.27
  A 0.33 0.33 0.0 0 0 138.73 50.48
  L 127.39 79.81
  A 0.33 0.33 0.0 0 0 127.70 80.26
  L 171.20 80.24
  A 0.33 0.33 0.0 0 0 171.51 79.79
  L 160.19 50.43
  Z"
/>
<path fill="#444444" d="
  M 106.27 112.00
  L 91.59 112.00
  L 91.58 97.21
  A 0.64 0.64 0.0 0 1 92.30 96.57
  L 94.23 96.81
  Q 94.77 96.87 94.77 97.42
  L 94.74 107.99
  Q 94.74 108.50 95.24 108.50
  L 106.00 108.50
  Q 106.48 108.50 106.62 108.95
  Q 107.20 110.76 106.27 112.00
  Z"
/>
<path fill="#444444" d="
  M 162.23 112.00
  L 148.58 112.00
  L 148.54 97.33
  A 0.61 0.61 0.0 0 1 149.15 96.72
  L 162.01 96.77
  Q 162.50 96.77 162.50 97.26
  L 162.50 99.37
  Q 162.50 100.00 161.88 100.00
  L 152.38 100.00
  Q 151.75 100.00 151.75 100.63
  L 151.75 101.91
  Q 151.75 102.56 152.40 102.56
  L 159.98 102.47
  Q 160.50 102.47 160.50 102.99
  L 160.50 105.26
  A 0.74 0.74 0.0 0 1 159.74 106.00
  L 152.16 105.79
  Q 151.78 105.77 151.77 106.15
  L 151.74 107.74
  Q 151.73 108.50 152.49 108.50
  L 161.76 108.50
  A 0.68 0.67 82.8 0 1 162.41 109.01
  Q 162.81 110.54 162.23 112.00
  Z"
/>
<path fill="#444444" d="
  M 16.89 112.00
  L 13.85 112.00
  L 13.84 102.76
  A 0.48 0.48 0.0 0 0 12.99 102.45
  L 8.86 107.48
  Q 8.51 107.90 8.16 107.47
  L 3.95 102.30
  A 0.39 0.39 0.0 0 0 3.25 102.55
  L 3.23 112.00
  L 0.00 112.00
  L 0.00 96.93
  L 2.95 96.77
  A 1.08 1.08 0.0 0 1 3.82 97.16
  L 8.03 102.26
  A 0.65 0.65 0.0 0 0 9.03 102.26
  L 13.28 97.13
  Q 13.60 96.75 14.10 96.75
  L 16.48 96.75
  Q 16.95 96.75 16.95 97.22
  L 16.89 112.00
  Z"
/>
<path fill="#444444" d="
  M 24.54 112.00
  L 21.46 112.00
  L 21.40 97.36
  Q 21.40 96.75 22.01 96.75
  L 24.05 96.75
  Q 24.71 96.75 24.70 97.41
  L 24.54 112.00
  Z"
/>
<path fill="#444444" d="
  M 42.76 112.00
  L 39.45 112.00
  C 37.65 110.03 34.59 104.51 31.59 106.15
  Q 31.23 106.35 31.21 106.76
  L 31.07 112.00
  L 28.08 112.00
  L 28.03 97.42
  Q 28.03 96.75 28.70 96.75
  L 30.63 96.75
  Q 31.25 96.75 31.25 97.37
  L 31.25 101.31
  A 1.80 1.80 0.0 0 0 34.46 102.44
  C 36.59 99.76 38.51 95.75 42.54 96.89
  Q 43.18 97.08 42.76 97.58
  L 37.52 103.86
  A 0.63 0.63 0.0 0 0 37.56 104.72
  Q 40.95 108.12 42.76 112.00
  Z"
/>
<path fill="#444444" d="
  M 61.48 112.00
  L 58.52 112.00
  L 58.29 106.46
  Q 58.26 105.92 57.73 105.91
  L 50.51 105.71
  A 1.28 1.28 0.0 0 0 49.25 107.35
  Q 49.88 109.49 49.27 112.00
  L 46.18 112.00
  L 46.19 97.35
  Q 46.19 96.75 46.79 96.75
  L 48.57 96.75
  A 1.00 1.00 0.0 0 1 49.57 97.82
  L 49.28 101.91
  A 0.58 0.58 0.0 0 0 49.85 102.53
  L 57.69 102.58
  A 0.62 0.62 0.0 0 0 58.32 101.95
  L 58.22 97.40
  Q 58.21 96.75 58.86 96.75
  L 60.94 96.75
  Q 61.50 96.75 61.50 97.30
  L 61.48 112.00
  Z"
/>
<path fill="#444444" d="
  M 80.77 112.00
  L 77.62 112.00
  L 77.69 107.34
  A 0.42 0.41 0.7 0 0 77.27 106.92
  L 69.74 106.99
  A 0.76 0.76 0.0 0 0 69.02 107.99
  Q 69.75 110.28 68.77 112.00
  L 65.92 112.00
  L 65.80 99.68
  A 2.91 2.90 -0.3 0 1 68.71 96.75
  L 78.07 96.75
  A 2.85 2.85 0.0 0 1 80.92 99.64
  L 80.77 112.00
  Z
  M 77.7456 100.6148
  A 0.64 0.64 0.0 0 0 77.1034 99.9770
  L 69.6435 100.0030
  A 0.64 0.64 0.0 0 0 69.0057 100.6453
  L 69.0144 103.1252
  A 0.64 0.64 0.0 0 0 69.6566 103.7630
  L 77.1165 103.7370
  A 0.64 0.64 0.0 0 0 77.7543 103.0947
  L 77.7456 100.6148
  Z"
/>
<path fill="#444444" d="
  M 88.38 112.00
  L 85.22 112.00
  L 85.19 97.35
  Q 85.19 96.75 85.79 96.75
  L 87.82 96.75
  Q 88.43 96.75 88.43 97.36
  L 88.38 112.00
  Z"
/>
<path fill="#444444" d="
  M 124.53 112.00
  L 112.22 112.00
  Q 110.90 111.29 110.01 110.06
  Q 109.75 109.69 109.75 109.24
  L 109.75 99.75
  A 3.00 3.00 0.0 0 1 112.75 96.75
  L 124.13 96.75
  Q 124.75 96.75 124.75 97.38
  L 124.75 99.38
  Q 124.75 100.02 124.12 100.02
  L 113.52 99.96
  Q 113.00 99.96 113.00 100.48
  L 113.00 108.00
  Q 113.00 108.50 113.50 108.50
  L 123.99 108.50
  Q 124.46 108.50 124.61 108.95
  Q 125.18 110.69 124.53 112.00
  Z"
/>
<path fill="#444444" d="
  M 144.14 112.00
  L 141.11 112.00
  L 141.00 106.37
  Q 140.99 105.88 140.51 105.87
  L 132.65 105.72
  A 0.62 0.62 0.0 0 0 132.02 106.33
  L 131.93 112.00
  L 128.84 112.00
  L 128.81 98.06
  A 1.71 1.71 0.0 0 1 132.14 97.53
  Q 132.61 98.97 131.95 101.17
  A 1.06 1.06 0.0 0 0 132.97 102.54
  L 140.28 102.55
  A 0.80 0.80 0.0 0 0 141.08 101.73
  L 140.97 97.40
  Q 140.95 96.75 141.60 96.75
  L 143.73 96.75
  Q 144.20 96.75 144.20 97.22
  L 144.14 112.00
  Z"
/>
<path fill="#444444" d="
  M 181.48 112.00
  L 178.27 112.00
  C 175.89 109.11 174.47 105.74 169.93 106.86
  Q 169.45 106.98 169.46 107.47
  L 169.52 112.00
  L 166.51 112.00
  L 166.42 97.32
  Q 166.42 96.76 166.98 96.76
  Q 172.91 96.73 178.75 96.75
  C 182.26 96.76 183.13 105.84 178.72 106.65
  A 0.44 0.44 0.0 0 0 178.51 107.41
  Q 181.07 109.57 181.48 112.00
  Z
  M 178.2365 100.6009
  A 0.57 0.57 0.0 0 0 177.6745 100.0230
  L 170.1152 99.9174
  A 0.57 0.57 0.0 0 0 169.5373 100.4794
  L 169.5035 102.8991
  A 0.57 0.57 0.0 0 0 170.0655 103.4770
  L 177.6248 103.5826
  A 0.57 0.57 0.0 0 0 178.2027 103.0206
  L 178.2365 100.6009
  Z"
/>
<path fill="#444444" d="
  M 200.54 112.00
  L 197.51 112.00
  L 189.53 102.46
  A 0.54 0.54 0.0 0 0 188.57 102.81
  L 188.63 112.00
  L 185.58 112.00
  L 185.54 97.24
  Q 185.53 96.75 186.02 96.75
  L 188.53 96.75
  Q 188.95 96.75 189.22 97.07
  L 196.70 106.08
  A 0.38 0.38 0.0 0 0 197.37 105.83
  L 197.20 97.41
  Q 197.19 96.75 197.85 96.75
  L 200.05 96.75
  Q 200.71 96.75 200.70 97.41
  L 200.54 112.00
  Z"
/>
<path fill="#444444" d="
  M 214.07 112.00
  L 211.12 112.00
  L 211.01 106.69
  A 1.62 1.61 -63.8 0 0 210.70 105.77
  L 204.49 97.42
  Q 203.99 96.75 204.82 96.75
  L 207.30 96.75
  Q 207.93 96.75 208.32 97.25
  L 212.24 102.23
  A 0.46 0.46 0.0 0 0 212.96 102.23
  L 216.93 97.16
  A 1.07 1.07 0.0 0 1 217.77 96.75
  L 220.41 96.75
  A 0.41 0.40 18.0 0 1 220.74 97.39
  L 214.53 105.74
  A 1.62 1.61 63.8 0 0 214.22 106.66
  L 214.07 112.00
  Z"
/>
<path fill="#444444" d="
  M 235.78 112.00
  L 226.02 112.00
  Q 223.65 110.84 223.41 108.70
  Q 223.28 107.52 224.43 107.27
  Q 225.99 106.92 226.89 108.11
  Q 227.20 108.51 227.70 108.51
  Q 231.13 108.50 234.50 108.42
  Q 235.47 108.39 235.26 106.79
  A 0.89 0.89 0.0 0 0 234.40 106.02
  L 225.29 105.75
  A 1.05 1.02 -15.4 0 1 224.47 105.30
  C 223.03 103.12 222.27 96.82 226.63 96.78
  C 229.93 96.74 239.25 95.01 238.46 100.71
  Q 238.39 101.19 237.90 101.25
  Q 236.16 101.43 234.79 100.29
  Q 234.44 100.00 233.99 100.00
  L 227.56 100.00
  Q 227.23 100.00 227.00 100.23
  Q 226.04 101.17 226.88 102.16
  Q 227.20 102.54 227.71 102.52
  C 230.07 102.42 237.73 101.78 238.44 104.86
  Q 239.72 110.34 235.78 112.00
  Z"
/>
<path fill="#444444" d="
  M 257.96 112.00
  L 254.86 112.00
  L 254.75 106.34
  Q 254.74 105.85 254.25 105.84
  L 246.37 105.73
  A 0.65 0.65 0.0 0 0 245.71 106.38
  L 245.68 112.00
  L 242.63 112.00
  L 242.66 97.36
  Q 242.67 96.75 243.27 96.75
  L 245.40 96.75
  Q 245.86 96.75 245.85 97.21
  L 245.72 101.99
  Q 245.70 102.53 246.24 102.53
  L 254.17 102.57
  A 0.70 0.70 0.0 0 0 254.87 101.84
  L 254.71 97.41
  Q 254.68 96.75 255.34 96.75
  L 257.45 96.75
  Q 258.00 96.75 258.00 97.30
  L 257.96 112.00
  Z"
/>
<path fill="#444444" d="
  M 276.01 112.00
  L 262.35 112.00
  L 262.31 97.42
  Q 262.31 96.75 262.97 96.75
  L 275.75 96.75
  Q 276.25 96.75 276.25 97.25
  L 276.25 99.25
  Q 276.25 100.00 275.50 100.00
  L 266.13 100.00
  Q 265.50 100.00 265.50 100.63
  L 265.50 101.75
  Q 265.50 102.50 266.25 102.50
  L 273.63 102.50
  Q 274.26 102.50 274.26 103.13
  L 274.23 105.31
  Q 274.23 105.90 273.63 105.89
  L 266.21 105.69
  Q 265.54 105.68 265.52 106.35
  L 265.49 107.86
  Q 265.48 108.50 266.12 108.50
  L 275.72 108.50
  Q 276.15 108.50 276.21 108.93
  Q 276.43 110.62 276.01 112.00
  Z"
/>
<path fill="#444444" d="
  M 291.00 112.00
  L 288.74 112.00
  L 280.16 97.37
  Q 279.80 96.75 280.52 96.75
  L 283.01 96.75
  Q 283.54 96.75 283.80 97.21
  L 289.40 106.97
  A 0.50 0.50 0.0 0 0 290.27 106.97
  L 295.82 97.30
  Q 296.13 96.75 296.76 96.75
  L 299.23 96.75
  Q 299.91 96.75 299.56 97.34
  L 291.00 112.00
  Z"
/>
</svg>
