<?xml version="1.0" encoding="UTF-8" standalone="no"?>
<!DOCTYPE svg PUBLIC "-//W3C//DTD SVG 1.1//EN" "http://www.w3.org/Graphics/SVG/1.1/DTD/svg11.dtd">
<svg xmlns="http://www.w3.org/2000/svg" version="1.1" viewBox="0.00 0.00 256.00 256.00">
<path fill="#000000" d="
  M 1.52 19.00
  C 1.52 11.50 6.15 5.00 12.88 2.16
  Q 16.18 0.76 22.94 0.76
  Q 127.67 0.75 232.39 0.75
  C 247.09 0.75 254.51 7.27 254.51 22.29
  Q 254.48 127.77 254.51 233.26
  Q 254.52 240.05 253.15 243.56
  C 248.93 254.43 239.48 255.49 228.98 255.49
  Q 126.99 255.51 25.00 255.45
  C 10.09 255.44 1.51 249.80 1.51 233.95
  Q 1.49 126.47 1.52 19.00
  Z
  M 80.7892 63.0913
  A 21.62 20.03 -0.5 0 0 58.9952 43.2508
  A 21.62 20.03 -0.5 0 0 37.5508 63.4687
  A 21.62 20.03 -0.5 0 0 59.3448 83.3092
  A 21.62 20.03 -0.5 0 0 80.7892 63.0913
  Z
  M 137.49 114.24
  L 137.53 99.35
  A 0.62 0.61 0.0 0 0 136.91 98.74
  L 100.87 98.78
  Q 99.52 98.78 99.52 100.13
  L 99.44 213.32
  A 0.69 0.69 0.0 0 0 100.14 214.01
  L 136.94 213.95
  A 0.56 0.56 0.0 0 0 137.50 213.39
  Q 137.50 184.32 137.50 155.17
  Q 137.50 144.72 138.85 140.64
  C 142.06 130.96 151.73 125.04 161.76 126.53
  C 172.65 128.15 177.70 138.76 177.72 149.06
  Q 177.78 181.28 177.74 213.33
  A 0.60 0.60 0.0 0 0 178.34 213.93
  L 215.48 214.03
  A 0.53 0.53 0.0 0 0 216.01 213.50
  Q 216.08 178.91 215.71 144.32
  C 215.44 119.64 202.75 98.40 176.32 96.22
  Q 151.61 94.19 138.04 114.41
  A 0.30 0.30 0.0 0 1 137.49 114.24
  Z
  M 78.24 99.50
  A 0.70 0.70 0.0 0 0 77.54 98.80
  L 40.70 98.80
  A 0.70 0.70 0.0 0 0 40.00 99.50
  L 40.00 213.30
  A 0.70 0.70 0.0 0 0 40.70 214.00
  L 77.54 214.00
  A 0.70 0.70 0.0 0 0 78.24 213.30
  L 78.24 99.50
  Z"
/>
</svg>
